# xmcd CD database file
#
# Track frame offsets:
#	150
#	14227
#	27217
#	33636
#	44665
#	67758
#	83216
#	99274
#	111835
#	140285
#	160947
#	219298
#	248114
#
# Disc length: 4086 seconds
#
# Revision: 0
# Processed by: cddbd v1.5.2PL0 Copyright (c) Steve Scherf et al.
# Submitted via: CDex 1.79
#
DISCID=ab0ff40d
DTITLE=Sitarick - Shiva, Dancing Westward
DYEAR=2015
DGENRE=New Age
TTITLE0=Owl Ponders the Mysterious Ways of Time
TTITLE1=Awakening
TTITLE2=Eagle takes flight above chaco canyon
TTITLE3=Three Sticks (Found at the Bizarre Bazaar)
TTITLE4=Approaching the Bend in the Path
TTITLE5=Love You To (Hari Georgson's Lovely Revolving Raga)
TTITLE6=Owl sings the nada Brahma Electric
TTITLE7=Vesper
TTITLE8=Owl and Crow look back upon the Myseterious ways of time
TTITLE9=Summer Sunday (Recroded Live)
TTITLE10=Into the arms of Shiva
TTITLE11=Within you without you
TTITLE12=Into the arms of Shiva (Nataraja Mix)
EXTD=YEAR: 2015
EXTT0=
EXTT1=
EXTT2=
EXTT3=
EXTT4=
EXTT5=
EXTT6=
EXTT7=
EXTT8=
EXTT9=
EXTT10=
EXTT11=
EXTT12=
PLAYORDER=
